<svg id="Layer_1" data-name="Layer 1" xmlns="http://www.w3.org/2000/svg" viewBox="0 0 3000 361.57"><defs><style>.cls-1{fill:#e74619;}</style></defs><path class="cls-1" d="M204.37,181.8c23.7-14.31,38-37.57,38-64.85,0-52.76-51-90.78-121.64-90.78C51,26.17,0,71.34,0,136.18V251.56c0,64.85,54.11,110,128.35,110,75.13,0,128.79-42,128.79-99.72C257.14,226.52,237.47,197,204.37,181.8ZM70.21,136.18c0-32.64,21.47-56.35,50.53-56.35,28.62,0,49.64,16.56,49.64,40.7,0,25-23.25,42-55.45,42H70.21Zm58.14,171.73c-34,0-58.14-23.7-58.14-56.35V207.73h54.11c35.33,0,61.27,20.13,61.27,50.54C185.59,287.34,161.44,307.91,128.35,307.91Z"/><path class="cls-1" d="M543.32,200.58c-12.07-55.9-58.58-95.25-120.74-95.25-72.45,0-125.22,54.11-125.22,128.34s53.66,127.9,127.9,127.9c56.35,0,103.3-30.86,116.72-66.63,6.26-14.31-2.68-30-20.12-30-9.4,0-19.68,4.92-26.39,11.63-12.07,21.91-36.67,36.67-63.06,36.67-38,0-64.84-25.94-68-65.74h136C531.25,247.54,550.93,225.63,543.32,200.58Zm-178,9.84c4-38,27.29-62.61,57.25-62.61,30.41,0,53.66,24.59,57.69,62.61Z"/><path class="cls-1" d="M693.55,150.94c24.6,0,44.28,15.21,47.85,36.67,3.58,6.27,11.19,12.52,28.63,12.52,16.54,0,27.72-7.15,27.72-20.57-.89-39.35-47-74.23-108.22-74.23-61.72,0-109.57,32.19-109.57,76.92,0,92.57,150.27,52.76,150.27,101.51,0,18.33-19.68,32.65-45.17,32.65-25,0-45.17-15.66-48.75-36.67-3.57-6.27-11.18-13-27.72-13-17.89,0-28.63,7.61-28.63,20.58.9,39.8,48.3,74.23,109.57,74.23,61.71,0,108.22-31.75,108.22-76.91,0-92.57-150.26-52.33-150.26-101.52C647.49,164.81,667.62,150.94,693.55,150.94Z"/><path class="cls-1" d="M1395.3,219.12a35.39,35.39,0,0,1-15.2,3.45H1380a36.46,36.46,0,0,1-22.67-8.26c-9.29-7.47-18.07-13.62-24.17-17.69a3.1,3.1,0,0,0-4.6,3.7,100.89,100.89,0,0,1,5.3,33.36c0,47.39-27.27,76.89-64.84,76.89-30.59,0-54.47-20-61.94-53.58a3.06,3.06,0,0,0-5.64-.94,176.42,176.42,0,0,1-16.7,24.21A135.13,135.13,0,0,1,1160.86,303a3.12,3.12,0,0,0-.78,4.23c22.69,33.57,61.69,54.34,109,54.34,76,0,131-53.66,131-127.88,0-4.06-.16-8.09-.5-12A3.06,3.06,0,0,0,1395.3,219.12Z"/><path class="cls-1" d="M1201.55,203.75c7.82-13.67,17.2-27.21,30-36.58A80.18,80.18,0,0,1,1275.14,152c.38,0,.75-.06,1.06-.06a88.7,88.7,0,0,1,26.21,2.92c14.9,4,28.88,11,41.86,19.13a253.25,253.25,0,0,1,28.94,21.24,10.7,10.7,0,0,0,12.73.8l.06-.06a10.52,10.52,0,0,0,4.48-11.55l.62-.12a.07.07,0,0,0-.07-.07c-.68-1.8-1.42-3.54-2.23-5.28a1,1,0,0,0-.13-.43c-9.75-27.2-46-73.29-111.48-75.65a160.94,160.94,0,0,0-50.74,6.34,174.26,174.26,0,0,0-28.07,10.74c-9.44,4.72-18.94,10.38-26.58,17.7a113.92,113.92,0,0,0-20.93,28.32c-4.72,9-10.81,18.26-20.62,22.3a47.75,47.75,0,0,1-12.61,3,50,50,0,0,1-20.12-1.74c-5.9-1.86-11.49-4-16.21-8.26-.68-.62-1.37-1.24-2-2a32.2,32.2,0,0,1-5.21-7.08A19.79,19.79,0,0,1,1073,170a48.31,48.31,0,0,0-5.84-9.13c-49.37-64.4-115-30.18-135.39-15.4a3,3,0,0,0-.56.37,54.12,54.12,0,0,0-4.47,3.67l-.06.06c-7.15-47.82,10.74-76,13.66-79.87C953.06,83,972.19,97.67,992.25,99c1.43,0,4.72-2.79,5.9-3.54,2-1.24,3.91-2.54,5.78-3.91A90.43,90.43,0,0,0,1013.8,83a54.3,54.3,0,0,0,12.48-18.63c5.22-14.22.07-28.07-10.93-37.82-7.76-7-17.2-11.74-26.89-15.4-1.8-.69-3.66-1.37-5.53-2C970.39,5,957.47,1.65,944.3.35A67.46,67.46,0,0,0,901.14,10.6a97,97,0,0,0-24,21.92,137.51,137.51,0,0,0-19.75,34.59,209.12,209.12,0,0,0-12.49,48.26,319.49,319.49,0,0,0-2.35,62.6c1.24,26.21,5.09,52.3,10.43,77.95a792.69,792.69,0,0,0,25.59,91.73c.18.62.43,1.18.62,1.74A9.2,9.2,0,0,0,880,351a13.6,13.6,0,0,0,2.55,3.29,12.06,12.06,0,0,0,6.4,2.92c.74.06,1.55.13,2.48.13h1.74l18.69.37,28.63.49a11.86,11.86,0,0,0,12-13.53c-5-37.08-17.26-125.89,31.43-126.33,28.63-.25,54.34,41.92,37.2,124.34a12,12,0,0,0,11.68,14.53h46.39a11.93,11.93,0,0,0,11.49-8.63c2.55-8.76,4.84-20.93,6.52-34.78.37-3.11.68-6.27,1-9.5a117.35,117.35,0,0,0,37.14-14.16,125.56,125.56,0,0,0,11.8-7.89,119.21,119.21,0,0,0,18.51-17.83C1180.68,246.29,1189.81,224.12,1201.55,203.75ZM975.67,24.51c2.92,0,5.34,4.84,5.34,10.8s-2.42,10.81-5.34,10.81-5.41-4.84-5.41-10.81S972.69,24.51,975.67,24.51Z"/><path class="cls-1" d="M1548.52,150.94c24.6,0,44.28,15.21,47.85,36.67,3.58,6.27,11.18,12.52,28.62,12.52,16.55,0,27.73-7.15,27.73-20.57-.9-39.35-47-74.23-108.22-74.23-61.72,0-109.57,32.19-109.57,76.92,0,92.57,150.26,52.76,150.26,101.51,0,18.33-19.68,32.65-45.17,32.65-25,0-45.16-15.66-48.74-36.67-3.58-6.27-11.18-13-27.73-13-17.88,0-28.62,7.61-28.62,20.58.9,39.8,48.3,74.23,109.57,74.23,61.71,0,108.22-31.75,108.22-76.91,0-92.57-150.26-52.33-150.26-101.52C1502.46,164.81,1522.58,150.94,1548.52,150.94Z"/><path class="cls-1" d="M1826.65,105.33c-77.36,0-132.81,54.11-132.81,128.34s48.74,127.9,120.3,127.9c34.43,0,61.26-12.07,80.49-33.09v.89c0,19.24,13,32.2,32.2,32.2,20.13,0,32.64-13,32.64-32.2v-95.7C1959.47,159.44,1903.58,105.33,1826.65,105.33Zm.45,205.26c-38.9,0-67.08-30-67.08-76.92,0-47.4,28.18-77.36,67.08-77.36,39.36,0,67.53,30,67.53,77.36C1894.63,280.63,1866.46,310.59,1827.1,310.59Z"/><path class="cls-1" d="M2227.32,105.33c-20.13,0-32.65,13-32.65,32.19V257.83c0,30.85-24.59,53.21-57.69,53.21-32.64,0-55.9-22.36-55.9-52.32V137.52c0-18.33-13-32.19-32.2-32.19-20.12,0-32.64,13-32.64,32.19V269.45c0,53.67,43.82,92.12,105.53,92.12,28.63,0,54.12-10.28,72.9-26.38,2.69,16.1,14.76,26.38,31.75,26.38,20.12,0,33.1-13,33.1-32.2V137.52C2259.52,118.3,2246.54,105.33,2227.32,105.33Z"/><path class="cls-1" d="M2446.87,105.33a103.05,103.05,0,0,0-67.53,25c-3.13-15.21-14.76-25-31.75-25-19.68,0-32.65,13-32.65,32.19V329.37c0,19.24,13,32.2,32.2,32.2,20.12,0,32.64-13,32.64-32.2V209.08c0-30.41,31.76-53.22,69.32-53.22,18.33,0,27.28-9.84,27.28-24.59C2476.38,115.61,2467.88,105.33,2446.87,105.33Z"/><path class="cls-1" d="M2707.56,105.33c-20.12,0-32.65,13-32.65,32.19V257.83c0,30.85-24.59,53.21-57.69,53.21-32.64,0-55.89-22.36-55.89-52.32V137.52c0-18.33-13-32.19-32.2-32.19-20.13,0-32.65,13-32.65,32.19V269.45c0,53.67,43.83,92.12,105.54,92.12,28.62,0,54.11-10.28,72.89-26.38,2.69,16.1,14.76,26.38,31.75,26.38,20.13,0,33.1-13,33.1-32.2V137.52C2739.76,118.3,2726.79,105.33,2707.56,105.33Z"/><path class="cls-1" d="M2849.74,183.14c0-18.33,20.13-32.2,46.06-32.2,24.6,0,44.28,15.21,47.86,36.67,3.57,6.27,11.17,12.52,28.62,12.52,16.54,0,27.72-7.15,27.72-20.57-.89-39.35-47-74.23-108.22-74.23-61.72,0-109.56,32.19-109.56,76.92,0,92.57,150.25,52.76,150.25,101.51,0,18.33-19.67,32.65-45.16,32.65-25,0-45.17-15.66-48.75-36.67-3.58-6.27-11.18-13-27.72-13-17.89,0-28.62,7.61-28.62,20.58.89,39.8,48.29,74.23,109.56,74.23,61.71,0,108.22-31.75,108.22-76.91C3000,192.09,2849.74,232.33,2849.74,183.14Z"/></svg>