<?xml version="1.0" standalone="no"?>
<!DOCTYPE svg PUBLIC "-//W3C//DTD SVG 20010904//EN"
 "http://www.w3.org/TR/2001/REC-SVG-20010904/DTD/svg10.dtd">
<svg version="1.0" xmlns="http://www.w3.org/2000/svg"
 width="48.000000pt" height="48.000000pt" viewBox="0 0 48.000000 48.000000"
 preserveAspectRatio="xMidYMid meet">

<g transform="translate(0.000000,48.000000) scale(0.100000,-0.100000)"
fill="#000000" stroke="none">
<path d="M180 440 c0 -18 7 -20 60 -20 53 0 60 2 60 20 0 18 -7 20 -60 20 -53
0 -60 -2 -60 -20z"/>
<path d="M364 409 c-3 -6 5 -23 20 -37 20 -20 28 -24 38 -14 9 9 6 17 -12 37
-26 28 -35 31 -46 14z"/>
<path d="M162 379 c-122 -62 -133 -231 -21 -306 150 -99 337 61 259 222 -44
91 -151 129 -238 84z m146 -39 c18 -11 41 -34 52 -52 71 -117 -71 -259 -188
-188 -50 31 -74 76 -69 133 9 100 120 159 205 107z"/>
<path d="M220 260 c0 -53 2 -60 20 -60 18 0 20 7 20 60 0 53 -2 60 -20 60 -18
0 -20 -7 -20 -60z"/>
</g>
</svg>
